<?xml version="1.0" standalone="no"?><!DOCTYPE svg PUBLIC "-//W3C//DTD SVG 1.1//EN" "http://www.w3.org/Graphics/SVG/1.1/DTD/svg11.dtd"><svg class="icon" width="200px" height="200.00px" viewBox="0 0 1024 1024" version="1.1" xmlns="http://www.w3.org/2000/svg"><path d="M512 725.333333C558.933333 725.333333 597.333333 686.933333 597.333333 640 597.333333 592.64 558.933333 554.666667 512 554.666667 465.066667 554.666667 426.666667 593.066667 426.666667 640 426.666667 686.933333 465.066667 725.333333 512 725.333333M768 341.333333C814.933333 341.333333 853.333333 379.733333 853.333333 426.666667L853.333333 853.333333C853.333333 900.266667 814.933333 938.666667 768 938.666667L256 938.666667C209.066667 938.666667 170.666667 900.266667 170.666667 853.333333L170.666667 426.666667C170.666667 379.306667 209.066667 341.333333 256 341.333333L298.666667 341.333333 298.666667 256C298.666667 138.24 394.24 42.666667 512 42.666667 629.76 42.666667 725.333333 138.24 725.333333 256L725.333333 341.333333 768 341.333333M512 128C441.173333 128 384 185.173333 384 256L384 341.333333 640 341.333333 640 256C640 185.173333 582.826667 128 512 128Z" /></svg>