<?xml version="1.0" standalone="no"?><!DOCTYPE svg PUBLIC "-//W3C//DTD SVG 1.1//EN" "http://www.w3.org/Graphics/SVG/1.1/DTD/svg11.dtd"><svg class="icon" width="200px" height="200.00px" viewBox="0 0 1024 1024" version="1.1" xmlns="http://www.w3.org/2000/svg"><path d="M918.795922 356.854687c-21.798121-51.476314-52.909055-97.631021-92.514092-137.236058-39.605037-39.605037-85.862083-70.818309-137.236058-92.514092C635.727364 104.590046 579.236458 93.128123 520.903458 93.128123s-114.823906 11.461923-168.142315 33.976414c-51.476314 21.798121-97.631021 52.909055-137.236058 92.514092s-70.818309 85.862083-92.514092 137.236058C100.496502 410.173096 89.034579 466.664002 89.034579 524.997002s11.461923 114.823906 33.976414 168.142315c21.798121 51.476314 52.909055 97.631021 92.514092 137.236058 39.605037 39.605037 85.862083 70.818309 137.236058 92.514092 53.21607 22.514491 109.809314 33.976414 168.142315 33.976414s114.823906-11.461923 168.142315-33.976414c51.476314-21.798121 97.631021-52.909055 137.236058-92.514092 39.605037-39.605037 70.818309-85.862083 92.514092-137.236058 22.514491-53.21607 33.976414-109.809314 33.976414-168.142315S941.310414 410.173096 918.795922 356.854687zM520.903458 911.836898c-213.273636 0-386.839896-173.56626-386.839896-386.839896s173.56626-386.839896 386.839896-386.839896 386.839896 173.56626 386.839896 386.839896S734.177094 911.836898 520.903458 911.836898z"  /><path d="M692.729962 499.821707c9.926844-23.128523-1.125725-47.38277-11.768939-61.403158-0.818709-55.160504-17.397561-98.961423-48.815511-130.379372-40.11673-40.014391-91.695383-46.768739-111.139716-47.894463l0 0-0.818709 0c-3.172497-0.204677-5.014591-0.204677-5.526284-0.204677l-5.014591 0.102339-5.014591-0.102339c-0.409354 0-2.149111 0-5.219268 0.204677l-0.921047 0 0 0.102339c-19.444333 1.125725-70.920648 7.880072-111.139716 47.894463-31.520288 31.315611-47.894463 75.218869-48.713172 130.379372-10.745553 14.020388-21.798121 38.274635-11.871277 61.403158-15.453128 19.956026-46.564062 67.543474-36.227863 115.847292 1.228063 6.242654 8.289426 35.409155 31.417949 38.991005 13.09934 2.046772 24.254247-5.11693 33.56706-15.35079 3.479512 7.675395 7.675395 15.862483 12.485309 23.3332-2.967819 1.739756-6.037977 3.786528-9.108135 5.935639-22.105137 15.248451-32.441335 31.213272-30.906256 47.178093 0.71637 7.573056 4.605237 18.523286 18.830302 28.040776 9.722167 6.447332 23.3332 11.768939 41.651809 16.169498l0.511693 0.102339c0.818709 0.204677 9.824505 1.944433 23.128523 1.944433 18.318609 0 44.721967-3.274835 69.28323-18.625625l2.149111-1.330402 4.502898 0.921047c7.573056 1.535079 15.146112 2.251449 22.719168 2.251449 7.573056 0 15.248451-0.71637 23.026184-2.251449l3.070158-0.614032 2.149111 1.43274c23.640216 15.248451 48.303818 18.830302 66.213072 18.830302 14.327404 0 24.254247-2.251449 25.686988-2.660804 18.318609-4.40056 31.929642-9.619828 41.651809-16.169498 14.225065-9.415151 18.113932-20.467719 18.830302-28.040776 1.535079-16.06716-8.903458-31.929642-30.906256-47.178093-3.070158-2.149111-6.140316-4.093544-9.108135-5.935639 4.809914-7.470718 9.005797-15.555467 12.485309-23.3332 9.312812 10.23386 20.467719 17.397561 33.56706 15.35079 23.026184-3.581851 30.189886-32.748351 31.417949-38.991005C739.191685 567.365181 708.18309 519.777733 692.729962 499.821707zM696.004797 608.709974l-0.102339 0.307016c-0.614032 3.274835-2.353788 7.982411-3.991205 10.95023-3.070158-2.660804-9.108135-9.108135-17.704577-24.868279l-19.444333-35.409155-11.359584 38.786328c-3.172497 10.95023-15.453128 44.824305-29.064162 56.695583l-19.546672 17.090546 23.640216 10.745553c0.102339 0 10.847891 4.912253 21.491105 12.178293 14.532081 9.722167 17.397561 15.760144 17.909254 17.192884-1.125725 1.535079-7.573056 8.289426-34.795123 14.839097l-0.204677 0c-0.307016 0.102339-35.102139 7.982411-65.701379-11.768939l-13.09934-8.494104-0.307016-0.204677-1.125725 0.204677-15.146112 2.865481c-15.248451 2.865481-26.198681 1.43274-33.157705 0l-16.169498-3.172497-14.736758 8.084749c-29.678193 18.523286-64.985009 12.792325-67.748151 12.38297-26.915051-6.447332-33.260044-13.201679-34.385769-14.736758 0.511693-1.43274 3.377174-7.470718 17.909254-17.192884 10.643214-7.163702 21.388767-12.075954 21.491105-12.178293l23.742554-10.745553-19.649011-17.192884c-12.075954-10.540875-24.254247-40.423746-29.064162-56.695583l-11.359584-38.786328-19.444333 35.409155c-8.596442 15.760144-14.634419 22.309814-17.704577 24.868279-1.535079-2.763142-3.172497-7.26604-3.991205-10.95023l-0.102339-0.307016c-9.722167-45.131321 35.71617-95.481911 36.125525-95.993604l9.722167-10.643214-9.005797-11.257246c-3.070158-3.786528-6.037977-9.619828-1.637418-20.467719 3.172497-7.880072 8.494104-14.020388 9.005797-14.532081l4.502898-4.707575 0-6.754347c-0.307016-48.610833 12.689986-86.373776 38.581651-112.367779 32.543674-32.543674 76.958625-37.660604 90.057965-38.479312l9.108135-0.102339 9.51749 0.102339c13.508695 0.818709 56.90026 5.935639 89.341595 38.172297 25.994004 25.891665 39.093344 63.756946 38.786328 112.572457l-0.204677 6.652009 4.707575 4.912253c0.409354 0.511693 5.8333 6.54967 9.005797 14.532081 4.40056 10.95023 1.43274 16.681191-1.637418 20.467719l-9.005797 11.257246 9.722167 10.643214C660.390965 513.228063 705.726964 563.578653 696.004797 608.709974z"  /></svg>