<?xml version="1.0" standalone="no"?><!DOCTYPE svg PUBLIC "-//W3C//DTD SVG 1.1//EN" "http://www.w3.org/Graphics/SVG/1.1/DTD/svg11.dtd"><svg class="icon" width="200px" height="200.00px" viewBox="0 0 1024 1024" version="1.1" xmlns="http://www.w3.org/2000/svg"><path d="M779.2 793.5c-1.9-14.1-6.6-25.3-14.1-34.7-6.6-9.4-15.9-16.9-25.3-23.4-10.3-6.6-21.6-12.2-33.8-15.9s-25.3-7.5-37.5-11.2c-13.1-3.8-25.3-7.5-37.5-12.2-12.2-3.8-23.4-9.4-32.8-15.9-11.2-6.6-19.7-14.1-26.2-20.6-4.7-5.6-8.4-11.2-12.2-16.9-1.9-2.8-2.8-6.6-3.8-9.4-0.9-4.7-1.9-10.3-1.9-15 0-7.5 0-15 0.9-24.4 0.9-11.2 4.7-22.5 13.1-30.9 4.7-4.7 10.3-9.4 15-14.1l11.2-8.4c4.7-4.7 9.4-10.3 12.2-16.9 3.8-6.6 6.6-14.1 9.4-21.6 1.9-5.6 4.7-11.2 6.6-16.9 0.9-2.8 2.8-5.6 3.8-9.4 5.6-17.8 9.4-33.8 12.2-47.8 3.8-16.9 5.6-33.8 6.6-55.3 0.1-2.5 0.1-5 0.1-7.6 0.2-37.8-4.6-75.5-16-111.5 0-0.9-0.9-2.8-0.9-3.8-4.7-17.8-12.2-34.7-22.5-50.6-0.9-0.9-1.9-2.8-2.8-3.8l-0.9-0.9c-0.9-1.9-2.8-3.8-3.8-4.7-1.9-1.9-2.8-3.8-3.8-5.6l-0.9-0.9c-8.4-10.3-17.8-19.7-27.2-26.2-13.1-9.4-26.2-17.8-40.3-23.4-13.1-5.6-27.2-9.4-41.3-11.2s-27.2-2.8-39.4-2.8h-7.5c-13.1 0-26.2 0.9-39.4 2.8-14.1 1.9-28.1 5.6-41.2 11.2-14.1 5.6-27.2 13.1-40.3 23.4-9.4 7.5-18.8 15.9-27.2 26.2l-0.9 0.9c-1.9 1.9-2.8 3.8-3.8 5.6s-2.8 2.8-3.8 4.7l-0.9 0.9c-0.9 0.9-1.9 2.8-2.8 3.8-10.3 15.9-17.8 32.8-22.5 50.6 0 0.9-0.9 2.8-0.9 3.8-10.5 36-16.1 73.7-16 111.5 0 2.5 0 5 0.1 7.6 0.9 21.6 2.8 38.4 6.6 55.3 2.8 14.1 6.6 30 12.2 47.8 0.9 2.8 1.9 6.6 3.8 9.4 2.8 5.6 4.7 11.2 6.6 16.9 2.8 7.5 5.6 14.1 9.4 21.6 2.8 6.6 6.6 12.2 12.2 16.9l11.2 8.4c5.6 4.7 10.3 9.4 15 14.1 7.5 8.4 12.2 18.8 13.1 30.9 0.9 8.4 0.9 16.9 0.9 24.4 0 4.7-0.9 9.4-1.9 13.1v1.9c-0.9 3.8-1.9 6.6-3.8 9.4-0.9 2.8-2.8 4.7-4.7 7.5-0.9 1.9-2.8 3.8-3.8 5.6s-2.8 2.8-3.8 4.7c-6.6 6.6-15 13.1-26.2 20.6-10.3 6.6-21.6 11.2-32.8 15.9-12.2 4.7-24.4 8.4-37.5 12.2s-25.3 7.5-37.5 11.2-23.4 8.4-33.8 15.9c-10.3 6.6-18.7 14.1-25.3 23.4s-11.2 20.6-14.1 34.7c-3.5 22.9-5.2 43.1-5.3 60.9 0 10.6 0.5 20.3 1.5 29.1 2.8 23.4 7.5 36.6 14.1 41.2 3.8 2.8 11.2 5.6 24.4 8.4s28.1 5.6 46.9 8.4c20.6 2.8 40.3 5.6 60.9 7.5 22.5 2.8 45 4.7 68.4 6.6 13.1 0.9 26.2 1.9 38.4 2.8 9.4 0.9 18.8 0.9 28.1 1.9h29.1c1.6 0 3.1 0 4.7 0.1h1.7c1.2 0 2.4 0.1 3.6 0.1 3.3 0.1 6.7 0.2 10 0.2h3.2c1.1 0 2.3-0.1 3.4-0.1h0.9c1.1-0.1 2.3-0.1 3.4-0.2h60c9.4-0.9 18.8-0.9 28.1-1.9 13.1-0.9 26.2-1.9 38.4-2.8 22.5-1.9 45-3.8 68.4-6.6 20.6-1.9 41.2-4.7 60.9-7.5 18.8-2.8 33.8-5.6 46.9-8.4s20.6-5.6 24.4-8.4c5.6-4.7 11.2-17.8 14.1-41.2 1.2-9 1.9-18.9 1.9-29.8 0-14-1.2-29.6-3.8-47-0.7-4.8-0.7-9.5-1.6-14.2z"  /><path d="M920.7 667c-1.9-12.2-6.6-22.5-12.2-30.9-6.6-8.4-14.1-15-23.4-20.6s-19.7-10.3-30-14.1c-11.2-3.8-22.5-6.6-33.8-10.3s-22.5-6.6-33.8-10.3-20.6-8.4-30-14.1c-10.3-6.6-17.8-12.2-23.4-17.8-3.8-4.7-7.5-9.4-11.2-15-0.9-2.8-2.8-5.6-3.8-8.4-0.9-4.7-1.9-9.4-1.9-14.1 0-6.6 0-14.1 0.9-21.6 0-10.3 4.7-19.7 11.2-27.2 4.7-4.7 9.4-8.4 14.1-13.1 3.8-2.8 7.5-4.7 10.3-7.5 4.7-3.8 8.4-9.4 10.3-15l8.4-19.7c1.9-4.7 3.8-10.3 6.6-15 0.9-2.8 2.8-5.6 2.8-8.4 5.6-15.9 8.4-30 11.2-43.1 2.8-15 4.7-30 5.6-49.7 0.9-36.6-3.8-72.2-14.1-106.9 0-0.9-0.9-1.9-0.9-3.8-4.7-15.9-11.2-31.9-20.6-45-0.9-0.9-1.9-1.9-1.9-3.8 0 0 0-0.9-0.9-0.9-0.9-1.9-1.9-2.8-2.8-4.7s-2.8-3.8-3.8-5.6l-0.9-0.9c-7.5-9.4-15.9-17.8-24.4-23.4-12.2-8.4-23.4-15.9-36.6-20.6-12.2-4.7-24.4-8.4-36.6-10.3-11.2-1.9-23.4-2.8-34.7-2.8h-7.5c-11.2 0-23.4 0.9-35.6 2.8-13.1 1.9-25.3 5.6-36.6 10.3-4.2 1.6-8.3 3.5-12.5 5.7 5.7 1.8 11.2 3.9 16.7 6.2 19.6 7.9 36.3 19 50 28.8 12 8.4 23.9 19.6 35.3 33.4l5 5 2.2 4.3c1.2 1.4 2.5 3 3.7 4.7 0.9 1.1 1.7 2.1 2.4 3l1 1 2.9 4.4c13.1 20.3 22.9 42.2 28.9 65.1l0.3 1.2c0.2 0.8 0.5 1.7 0.8 2.8 12.7 41 18.5 85.7 17.4 132.7v1c-1.1 25.3-3.4 44.3-7.6 63.5-3.6 18.1-7.9 35-13.1 51.5-1.6 5.9-3.7 10.3-4.9 12.9-1.4 3.8-2.8 7.3-4 10.1-0.8 1.9-1.6 3.9-2 5l-0.3 0.9-0.3 0.9c-3 8.1-6.5 17.2-11.5 26.5-4.9 10.4-12 20.2-21.5 29.7l-2.5 2.5-2.8 2.1-8.7 6.5c-2.2 2.1-4.4 4.1-6.4 6-1.5 1.4-3 2.7-4.3 3.9-0.1 0.3-0.1 0.7-0.1 1.2v0.8c-0.7 6.8-0.7 12.2-0.7 19.1 0 0.2 0.1 0.6 0.2 1.4 1.6 2.4 3.2 4.6 4.7 6.6 3.6 3.5 8.4 7.6 14.4 11.1l1.8 1 1.7 1.2c5.4 3.8 12.1 7 18.8 9.1l1.6 0.5 1.6 0.6c11.3 4.3 22.7 7.7 33.3 10.8l0.5 0.1 0.5 0.1c5.8 1.8 12.2 3.7 18.2 5.5 6.3 1.9 12.9 3.8 19.2 5.8 15.5 4.8 30.9 12 45.9 21.5l0.9 0.6 0.9 0.6c11.2 7.8 25.4 18.8 36.7 34.4 12.4 16 20.3 35 23.4 56.6 0.7 4 1.1 7.5 1.3 10.1 0.1 0.8 0.2 1.9 0.3 2.4l0.2 0.9 0.2 1.2c0.1 0.7 0.2 1.4 0.3 2 5.1-0.6 10.1-1.2 15-2 16.9-2.8 30.9-4.7 42.2-7.5s18.8-4.7 21.6-7.5c5.6-3.8 9.4-15.9 12.2-36.6 5.6-21.4 3.7-48.6-1-81.4z"  /></svg>