<?xml version="1.0" standalone="no"?><!DOCTYPE svg PUBLIC "-//W3C//DTD SVG 1.1//EN" "http://www.w3.org/Graphics/SVG/1.1/DTD/svg11.dtd"><svg class="icon" width="200px" height="200.00px" viewBox="0 0 1024 1024" version="1.1" xmlns="http://www.w3.org/2000/svg"><path d="M959.731361 367.088547c-21.798121-51.476314-52.909055-97.631021-92.514092-137.236058-39.605037-39.605037-85.862083-70.818309-137.236058-92.514092C676.662802 114.823906 620.171897 103.361983 561.838897 103.361983s-114.823906 11.461923-168.142315 33.976414c-51.476314 21.798121-97.631021 52.909055-137.236058 92.514092s-70.818309 85.862083-92.514092 137.236058C141.431941 420.406956 129.970018 476.897861 129.970018 535.230861s11.461923 114.823906 33.976414 168.142315c21.798121 51.476314 52.909055 97.631021 92.514092 137.236058 39.605037 39.605037 85.862083 70.818309 137.236058 92.514092 53.21607 22.514491 109.809314 33.976414 168.142315 33.976414s114.823906-11.461923 168.142315-33.976414c51.476314-21.798121 97.631021-52.909055 137.236058-92.514092 39.605037-39.605037 70.818309-85.862083 92.514092-137.236058 22.514491-53.21607 33.976414-109.809314 33.976414-168.142315S982.245852 420.406956 959.731361 367.088547zM561.838897 922.070758c-213.273636 0-386.839896-173.56626-386.839896-386.839896s173.56626-386.839896 386.839896-386.839896 386.839896 173.56626 386.839896 386.839896S775.112532 922.070758 561.838897 922.070758z"  /><path d="M839.790526 562.555267c0-36.534879-16.578853-70.71597-46.768739-96.198281-26.915051-22.821507-61.812512-36.125525-99.268439-38.172297-8.187088-37.660604-31.520288-71.841695-65.701379-96.402958-34.488107-24.868279-78.391365-38.479312-123.625025-38.479312-50.964621 0-98.859085 16.885868-135.189286 47.485109-37.046572 31.417949-57.514291 73.274435-57.514291 118.098741 0 23.128523 5.423946 45.540676 16.169498 66.520088 9.312812 18.318609 22.309814 34.897462 38.581651 49.224865l-13.201679 73.581451c-1.125725 6.344993 1.228063 12.894663 6.140316 17.090546 3.274835 2.763142 7.470718 4.195882 11.6666 4.195882 2.046772 0 4.093544-0.307016 6.140316-1.125725l120.861883-43.903258c14.634419-0.307016 28.654807-1.330402 41.958825-3.172497 6.447332 13.713372 15.35079 25.789326 26.505697 36.023186 27.836098 25.379972 68.873876 38.68399 122.089946 39.809714 0.307016 0 0.511693 0 0.818709 0.102339l88.420548 20.672397c1.330402 0.307016 2.660804 0.511693 4.093544 0.511693 4.298221 0 8.494104-1.535079 11.871277-4.502898 4.40056-3.786528 6.652009-9.51749 6.140316-15.248451l-3.991205-42.675195C823.928043 631.224465 839.790526 597.555067 839.790526 562.555267zM494.704777 589.572656l-2.967819 0.102339-98.654407 35.818509 9.108135-50.248251c1.637418-8.801119-1.739756-17.806916-8.596442-23.537877-30.087547-24.663602-46.6664-57.61663-46.6664-92.61643 0-71.944034 70.71597-130.58405 157.601439-130.58405 74.195483 0 137.440736 42.26584 153.610234 101.417549-31.417949 4.502898-60.379772 17.090546-83.610634 36.637218-30.087547 25.482311-46.768739 59.663402-46.768739 96.198281 0 8.494104 0.614032 16.78353 1.944433 24.663602C518.652009 588.54927 506.88307 589.367979 494.704777 589.572656zM767.744154 634.192285c-5.219268 4.093544-7.982411 10.643214-7.368379 17.192884l2.558465 27.222067-65.394363-15.248451 0 0c-2.660804-0.818709-5.321607-1.125725-8.084749-1.125725-82.791925-1.637418-126.592844-36.227863-126.592844-99.575455 0-54.955827 54.239456-99.575455 120.964221-99.575455s120.861883 44.721967 120.861883 99.575455C804.790726 589.777334 791.589047 615.157306 767.744154 634.192285z"  /><path d="M439.339596 431.152508m-23.947232 0a23.4 23.4 0 1 0 47.894463 0 23.4 23.4 0 1 0-47.894463 0Z"  /><path d="M566.034779 433.506296m-23.947232 0a23.4 23.4 0 1 0 47.894463 0 23.4 23.4 0 1 0-47.894463 0Z"  /><path d="M630.610434 545.874076m-19.956026 0a19.5 19.5 0 1 0 39.912053 0 19.5 19.5 0 1 0-39.912053 0Z"  /><path d="M719.84969 545.874076m-19.956026 0a19.5 19.5 0 1 0 39.912053 0 19.5 19.5 0 1 0-39.912053 0Z"  /></svg>